<?xml version="1.0" encoding="UTF-8"?>
<svg width="20px" height="20px" viewBox="0 0 20 20" version="1.1" xmlns="http://www.w3.org/2000/svg" xmlns:xlink="http://www.w3.org/1999/xlink">
    <title>编组 2</title>
    <g id="页面-1" stroke="none" stroke-width="1" fill="none" fill-rule="evenodd">
        <g id="画板" transform="translate(-34.000000, -221.000000)" fill-rule="nonzero">
            <g id="编组-2备份" transform="translate(34.000000, 221.000000)">
                <rect id="矩形" fill="#000000" opacity="0" x="0" y="0" width="20" height="20"></rect>
                <path d="M19.229,5.387 C19.6539666,5.38809633 19.9983521,5.73203513 20,6.157 L20,6.157 L20,19.232 C19.9983477,19.6566395 19.6536427,20 19.229,20 L19.229,20 L0.772,20 C0.347357285,20 0.00265230627,19.6566395 0.001,19.232 L0.001,19.232 L0.001,6.157 C0.00155177863,5.73157903 0.346578677,5.387 0.772,5.387 L0.772,5.387 Z M12.103,8.564 C11.760885,8.55729025 11.4304313,8.68837706 11.1859474,8.92778325 C10.9414634,9.16718944 10.803471,9.4948195 10.803,9.837 C10.7998541,10.2015937 10.957974,10.548945 11.235,10.786 L11.235,10.786 L9.654,14.24 C9.51164184,14.2098804 9.36393843,14.2167663 9.225,14.26 C9.13827926,14.284668 9.05340277,14.3154107 8.971,14.352 L8.971,14.352 L7.395,12.411 C7.45748931,12.3078723 7.50687054,12.1973524 7.542,12.082 C7.68192944,11.6336145 7.55649544,11.1446542 7.218,10.819 C6.6996485,10.3294545 5.8893515,10.3294545 5.371,10.819 C5.12930733,11.0536411 4.99291705,11.3761442 4.99291705,11.713 C4.99291705,12.0498558 5.12930733,12.3723589 5.371,12.607 C5.64451303,12.8672219 6.01560302,12.9991569 6.392,12.97 L6.392,12.97 L6.484,12.97 L8.284,15.088 C8.25300679,15.1509379 8.23240698,15.2184783 8.223,15.288 C8.21317357,15.3626001 8.20816319,15.4377557 8.208,15.513 C8.20827714,15.8509445 8.34323454,16.1748423 8.583,16.413 C9.09771821,16.9058341 9.90928179,16.9058341 10.424,16.413 C10.7733808,16.0749809 10.8930175,15.5639838 10.73,15.106 C10.6834872,14.9769146 10.6195633,14.8547862 10.54,14.743 L10.54,14.743 L12.096,11.352 L12.988,12.904 C12.9185389,13.0090139 12.8630711,13.1226389 12.823,13.242 C12.6707848,13.6960634 12.791597,14.1971818 13.134,14.532 C13.3815326,14.7676567 13.7102304,14.8990642 14.052,14.899 C14.3968294,14.902718 14.7293406,14.7709344 14.978,14.532 C15.2228546,14.2968095 15.3605654,13.9715083 15.3590172,13.632 C15.359895,13.4602787 15.3258728,13.2901677 15.259,13.132 C15.1994776,12.9773418 15.1066095,12.8376981 14.987,12.723 L14.987,12.723 L14.986,12.711 C14.7369416,12.4723315 14.4049507,12.3396785 14.06,12.341 L14.06,12.341 L13.84,12.341 L12.968,10.785 C13.2375819,10.5569521 13.3980406,10.2254522 13.4096645,9.87254268 C13.4212884,9.51963315 13.2829913,9.17829305 13.029,8.933 C12.7808391,8.69305877 12.4481715,8.5604947 12.103,8.564 Z" id="形状结合" fill="#A6ADB4"></path>
                <path d="M3.847,1.541 L16.155,1.541 C16.2573745,1.54020744 16.3552409,1.49877761 16.427068,1.42582529 C16.4988951,1.35287296 16.5387987,1.25437449 16.5380471,1.152 L16.5380471,0.39 C16.5396077,0.287386513 16.4999669,0.188420435 16.4279655,0.115291049 C16.3559641,0.0421616628 16.2576261,0.000999997112 16.155,0.000999997112 L3.847,0.000999997112 C3.6340477,0.00319827176 3.46288807,0.177039259 3.46395294,0.39 L3.46395294,1.151 C3.46239228,1.25361349 3.50203309,1.35257957 3.57403451,1.42570895 C3.64603594,1.49883834 3.74437392,1.54001259 3.847,1.54 L3.847,1.541 Z" id="路径" fill="#A6ADB4"></path>
                <path d="M1.928,4.232 C1.82510453,4.23200311 1.72646652,4.19092381 1.65399062,4.11788463 C1.58151472,4.04484544 1.54120029,3.94589237 1.54198833,3.843 L1.54198833,3.084 C1.54144588,2.87010214 1.71410426,2.69610185 1.928,2.69499461 L18.077,2.69499461 C18.1800617,2.69445446 18.2790167,2.73536053 18.3516107,2.80851872 C18.4242047,2.88167691 18.4643434,2.98094563 18.4630327,3.084 L18.4630327,3.845 C18.4635541,4.05889786 18.2908957,4.23289815 18.077,4.234 L1.926,4.234 L1.928,4.232 Z" id="路径" fill="#A6ADB4"></path>
            </g>
        </g>
    </g>
</svg>