<?xml version="1.0" encoding="UTF-8"?>
<svg width="21px" height="20px" viewBox="0 0 21 20" version="1.1" xmlns="http://www.w3.org/2000/svg" xmlns:xlink="http://www.w3.org/1999/xlink">
    <title>形状</title>
    <g id="页面-1" stroke="none" stroke-width="1" fill="none" fill-rule="evenodd">
        <g id="画板" transform="translate(-34.000000, -419.000000)" fill="#A6ADB4" fill-rule="nonzero">
            <path d="M52.4425549,420 L54.444,424.000479 L54.444,436.997835 C54.4446335,437.263438 54.3394061,437.518347 54.151596,437.706157 C53.9637859,437.893967 53.7088774,437.999194 53.4432746,437.998558 L35.4447197,437.998558 C34.8920375,437.998558 34.444,437.550517 34.444,436.997835 L34.444,424.002879 L36.4454393,420 L52.4425549,420 Z M44.4439971,427.000238 L40.4435183,430.998317 L43.4432775,430.998317 L43.4432775,434.998796 L45.4447168,434.998796 L45.4447168,430.998317 L48.4444759,430.998317 L44.4439971,427.000238 Z M51.2066541,421.99904 L37.6813401,421.99904 L36.6806204,424.000479 L52.2073738,424.000479 L51.2066541,421.99904 Z" id="形状"></path>
        </g>
    </g>
</svg>