<?xml version="1.0" encoding="UTF-8"?>
<svg width="20px" height="20px" viewBox="0 0 20 20" version="1.1" xmlns="http://www.w3.org/2000/svg" xmlns:xlink="http://www.w3.org/1999/xlink">
    <title>编组 5</title>
    <g id="页面-1" stroke="none" stroke-width="1" fill="none" fill-rule="evenodd">
        <g id="画板" transform="translate(-36.000000, -546.000000)" fill-rule="nonzero">
            <g id="编组-5" transform="translate(36.000000, 546.000000)">
                <path d="M7.57208089,16.4285714 L12.0913242,19 L3.91389432,19 C3.19336628,19 2.60926288,18.4243661 2.60926288,17.7142857 C2.60926288,17.0042053 3.19336628,16.4285714 3.91389432,16.4285714 L7.57208089,16.4285714 Z" id="路径" fill="#FFFFFF"></path>
                <polygon id="路径" fill="#08C0C0" points="14.3509459 6.14285714 20 9.35714286 20 15.7857143 14.3509459 19 8.70189172 15.7857143 8.70189172 9.35714286"></polygon>
                <path d="M16.9602087,1 C17.3062185,1 17.6380566,1.13545879 17.8827225,1.376577 C18.1273883,1.6176952 18.2648402,1.94472166 18.2648402,2.28571429 L18.2648402,7.084 L14.3509459,4.85714286 L7.57208089,8.71428571 L7.57077626,15.1428571 L1.30463144,15.1428571 C0.95862167,15.1428571 0.626783558,15.0073983 0.382117702,14.7662801 C0.137451847,14.5251619 0,14.1981355 0,13.8571429 L0,2.28571429 C0,1.57563389 0.584103392,1 1.30463144,1 L16.9602087,1 Z" id="路径" fill="#3054EB"></path>
                <path d="M14.3509459,10 C12.9098898,10 11.741683,11.1512678 11.741683,12.5714286 C11.741683,13.9915894 12.9098898,15.1428571 14.3509459,15.1428571 C15.792002,15.1428571 16.9602087,13.9915894 16.9602087,12.5714286 C16.9602087,11.1512678 15.792002,10 14.3509459,10 L14.3509459,10 Z" id="路径" fill="#FFFFFF"></path>
                <path d="M14.3509459,11.2857143 C15.0714739,11.2857143 15.6555773,11.8613482 15.6555773,12.5714286 C15.6555773,13.281509 15.0714739,13.8571429 14.3509459,13.8571429 C13.6304178,13.8571429 13.0463144,13.281509 13.0463144,12.5714286 C13.0463144,11.8613482 13.6304178,11.2857143 14.3509459,11.2857143 L14.3509459,11.2857143 Z" id="路径" fill="#08C0C0"></path>
            </g>
        </g>
    </g>
</svg>