<?xml version="1.0" encoding="UTF-8"?>
<svg width="20px" height="20px" viewBox="0 0 20 20" version="1.1" xmlns="http://www.w3.org/2000/svg" xmlns:xlink="http://www.w3.org/1999/xlink">
    <title>工具-2</title>
    <g id="页面-1" stroke="none" stroke-width="1" fill="none" fill-rule="evenodd">
        <g id="画板" transform="translate(-36.000000, -366.000000)" fill-rule="nonzero">
            <g id="工具-2" transform="translate(36.000000, 363.000000)">
                <rect id="矩形" fill="#000000" opacity="0" x="4" y="0" width="16" height="16"></rect>
                <path d="M13.8690203,13.5615494 C13.8690203,13.5615494 11.4493578,14.1995737 9.76660063,17.0152687 C9.87641197,17.0371293 14.2429381,21.4585611 14.2429381,21.4585611 C15.0238187,22.217327 16.299613,22.217327 17.0804937,21.4585611 L18.2134316,20.3586683 C18.9943123,19.5999024 18.9943123,18.3680835 18.2134316,17.6090634 L13.8690203,13.5615494 Z M15.8377445,20.699541 C15.6397282,20.8863728 15.3209703,20.8863728 15.1338843,20.699541 L11.4933332,17.1690555 C11.2953169,16.9819695 11.2953169,16.6741418 11.4933332,16.4870558 C11.6913495,16.300224 12.0101074,16.300224 12.1971934,16.4870558 L15.8377445,20.0175414 C16.0248305,20.1934429 16.0248305,20.5015247 15.8377445,20.699541 L15.8377445,20.699541 Z M17.4325509,19.14871 C17.2345346,19.3355418 16.9157767,19.3355418 16.7286907,19.14871 L13.0772093,15.6182244 C12.879193,15.4311384 12.879193,15.1233108 13.0772093,14.9362248 C13.2752256,14.749393 13.5939835,14.749393 13.7810695,14.9362248 L17.4216206,18.4669645 C17.6305672,18.642866 17.6305672,18.9506937 17.4325509,19.14871 L17.4325509,19.14871 Z M4.67435373,9.11825709 L7.6329052,12.0658783 L9.05181012,10.6800184 L6.09325864,7.74358174 L6.79711886,7.05065182 L2.83755564,3.20115414 L0,5.95075903 L3.97049351,9.80000252 L4.67435373,9.11825709 Z M14.0230612,11.4608991 C14.1331267,11.4939442 14.2210775,11.5269893 14.331143,11.5709646 C14.8591017,11.7359358 15.4310358,11.7908415 15.9699248,11.7468661 C16.9706824,11.6589154 17.9605096,11.2410222 18.7195297,10.4710718 C19.6214062,9.58012564 20.0502297,8.3594912 19.995324,7.16046317 C19.995324,7.11648779 19.995324,7.07251241 19.9843937,7.02853704 L18.026854,7.02853704 L17.2459733,7.80941771 L16.6519244,8.40321239 L16.0469453,9.00819155 L14.4190938,8.57936808 L13.9790858,6.95151658 L14.584065,6.34653742 L15.1778596,5.75248855 L15.9587403,4.97160788 L15.9587403,3.01406815 C15.9147649,3.01406815 15.848929,3.00313785 15.8046994,3.00313785 C14.6280403,2.95916248 13.418082,3.37705565 12.5052752,4.27893215 C11.7353248,5.04888253 11.3065014,6.02777949 11.2294809,7.02853704 C11.1855055,7.6335162 11.2513415,8.23824118 11.4493578,8.81017526 C11.4493578,8.82110556 11.4602881,8.83203585 11.4602881,8.85415064 C11.5151938,9.05216693 11.5263783,9.29415859 11.2843866,9.54708056 C10.9653745,9.85490819 1.53990075,18.8075831 1.53990075,18.8075831 C0.759020079,19.4786524 0.813925751,20.7214016 1.53990075,21.4583069 C2.27680604,22.1842819 3.50862497,22.2282573 4.19062459,21.4473766 C4.19062459,21.4473766 13.066279,12.0546938 13.4511271,11.6698457 C13.6491434,11.4718294 13.85809,11.4387843 14.0230612,11.4608991 Z M3.33272346,20.5566846 C3.0798015,20.8096066 2.69469922,20.8096066 2.44177725,20.5566846 C2.18885529,20.3037626 2.18885529,19.9186603 2.44177725,19.6657384 C2.69469922,19.4128164 3.0798015,19.4128164 3.33272346,19.6657384 C3.56352588,19.9178779 3.56352588,20.3045451 3.33272346,20.5566846 L3.33272346,20.5566846 Z" id="形状" fill="#A6ADB4"></path>
            </g>
        </g>
    </g>
</svg>