<?xml version="1.0" encoding="UTF-8"?>
<svg width="20px" height="20px" viewBox="0 0 20 20" version="1.1" xmlns="http://www.w3.org/2000/svg" xmlns:xlink="http://www.w3.org/1999/xlink">
    <title>编组 9</title>
    <g id="页面-1" stroke="none" stroke-width="1" fill="none" fill-rule="evenodd">
        <g id="画板" transform="translate(-36.000000, -389.000000)" fill-rule="nonzero">
            <g id="工具-2" transform="translate(36.000000, 363.000000)">
                <g id="编组-9" transform="translate(0.000000, 26.000000)">
                    <path d="M13.8690203,10.5615494 C13.8690203,10.5615494 11.4493578,11.1995737 9.76660063,14.0152687 C9.87641197,14.0371293 14.2429381,18.4585611 14.2429381,18.4585611 C15.0238187,19.217327 16.299613,19.217327 17.0804937,18.4585611 L18.2134316,17.3586683 C18.9943123,16.5999024 18.9943123,15.3680835 18.2134316,14.6090634 L13.8690203,10.5615494 Z" id="路径" fill="#08C0C0"></path>
                    <path d="M15.8377445,17.699541 C15.6397282,17.8863728 15.3209703,17.8863728 15.1338843,17.699541 L11.4933332,14.1690555 C11.2953169,13.9819695 11.2953169,13.6741418 11.4933332,13.4870558 C11.6913495,13.300224 12.0101074,13.300224 12.1971934,13.4870558 L15.8377445,17.0175414 C16.0248305,17.1934429 16.0248305,17.5015247 15.8377445,17.699541 L15.8377445,17.699541 Z" id="路径" fill="#F9F9F9"></path>
                    <path d="M17.4325509,16.14871 C17.2345346,16.3355418 16.9157767,16.3355418 16.7286907,16.14871 L13.0772093,12.6182244 C12.879193,12.4311384 12.879193,12.1233108 13.0772093,11.9362248 C13.2752256,11.749393 13.5939835,11.749393 13.7810695,11.9362248 L17.4216206,15.4669645 C17.6305672,15.642866 17.6305672,15.9506937 17.4325509,16.14871 L17.4325509,16.14871 Z" id="路径" fill="#F9F9F9"></path>
                    <polygon id="路径" fill="#08C0C0" points="4.67435373 6.11825709 7.6329052 9.06587827 9.05181012 7.68001843 6.09325864 4.74358174 6.79711886 4.05065182 2.83755564 0.201154142 0 2.95075903 3.97049351 6.80000252"></polygon>
                    <path d="M14.0230612,8.4608991 C14.1331267,8.49394418 14.2210775,8.52698926 14.331143,8.57096464 C14.8591017,8.73593585 15.4310358,8.79084152 15.9699248,8.74686614 C16.9706824,8.65891539 17.9605096,8.24102222 18.7195297,7.47107184 C19.6214062,6.58012564 20.0502297,5.3594912 19.995324,4.16046317 C19.995324,4.11648779 19.995324,4.07251241 19.9843937,4.02853704 L18.026854,4.02853704 L17.2459733,4.80941771 L16.6519244,5.40321239 L16.0469453,6.00819155 L14.4190938,5.57936808 L13.9790858,3.95151658 L14.584065,3.34653742 L15.1778596,2.75248855 L15.9587403,1.97160788 L15.9587403,0.0140681479 C15.9147649,0.0140681479 15.848929,0.00313785204 15.8046994,0.00313785204 C14.6280403,-0.0408375243 13.418082,0.377055647 12.5052752,1.27893215 C11.7353248,2.04888253 11.3065014,3.02777949 11.2294809,4.02853704 C11.1855055,4.6335162 11.2513415,5.23824118 11.4493578,5.81017526 C11.4493578,5.82110556 11.4602881,5.83203585 11.4602881,5.85415064 C11.5151938,6.05216693 11.5263783,6.29415859 11.2843866,6.54708056 C10.9653745,6.85490819 1.53990075,15.8075831 1.53990075,15.8075831 C0.759020079,16.4786524 0.813925751,17.7214016 1.53990075,18.4583069 C2.27680604,19.1842819 3.50862497,19.2282573 4.19062459,18.4473766 C4.19062459,18.4473766 13.066279,9.05469378 13.4511271,8.66984569 C13.6491434,8.4718294 13.85809,8.43878432 14.0230612,8.4608991 Z" id="路径" fill="#3054EB"></path>
                    <path d="M2.44177725,17.5566846 C2.18885529,17.3037626 2.18885529,16.9186603 2.44177725,16.6657384 C2.69469922,16.4128164 3.0798015,16.4128164 3.33272346,16.6657384 C3.56352588,16.9178779 3.56352588,17.3045451 3.33272346,17.5566846 C3.0798015,17.8096066 2.69469922,17.8096066 2.44177725,17.5566846 Z" id="路径" fill="#F9F9F9"></path>
                </g>
            </g>
        </g>
    </g>
</svg>