<?xml version="1.0" encoding="UTF-8"?>
<svg width="20px" height="20px" viewBox="0 0 20 20" version="1.1" xmlns="http://www.w3.org/2000/svg" xmlns:xlink="http://www.w3.org/1999/xlink">
    <title>编组 9备份 3</title>
    <g id="页面-1" stroke="none" stroke-width="1" fill="none" fill-rule="evenodd">
        <g id="画板" transform="translate(-34.000000, -125.000000)" fill-rule="nonzero">
            <g id="编组-9备份-3" transform="translate(34.000000, 125.000000)">
                <rect id="矩形" fill="#000000" opacity="0" x="0" y="0" width="20" height="20"></rect>
                <path d="M11.535625,18.564082 L11.535625,13.451582 L8.47078125,13.451582 L8.47078125,18.5691797 L8.33076172,18.5691797 C6.86539062,18.5691797 5.40001953,18.5694531 3.93464844,18.5690234 C3.42365234,18.5688672 3.10005859,18.2056055 3.10001953,17.6334766 C3.09998047,15.5548242 3.1009375,13.4761523 3.09792885,11.3975 C3.09773437,11.2787109 3.13152344,11.2032617 3.21332031,11.1282031 C5.45121094,9.07576172 7.68703125,7.02033203 9.92328125,4.96558594 C9.94755859,4.94332031 9.97320312,4.92300781 10.0044531,4.89644531 C10.3326953,5.19791016 10.6587891,5.49697266 10.9844727,5.7965625 C12.9242773,7.58078125 14.8636719,9.36542969 16.8048828,11.1475977 C16.8733008,11.2104102 16.9023048,11.2736328 16.9023048,11.3725781 C16.9001562,13.4735156 16.9016016,15.5744141 16.9001367,17.6753516 C16.8997656,18.1881836 16.5673047,18.5668359 16.1100977,18.5678711 C14.6127734,18.5712305 13.1154687,18.5691602 11.6181641,18.5689453 C11.5948828,18.5689453 11.5715625,18.5663086 11.535625,18.564082 Z" id="路径" fill="#A6ADB4"></path>
                <path d="M9.99941406,3.71712891 C9.25474609,4.40933594 8.5190625,5.09324219 7.78332031,5.77705078 C5.7809375,7.63794922 3.77865234,9.49902344 1.77583984,11.3593555 C1.52667969,11.5907422 1.32441406,11.5704492 1.11572266,11.2960938 C0.896269531,11.0076172 0.67734375,10.7186328 0.460332031,10.4278711 C0.28390625,10.1914453 0.303359375,9.94583984 0.513417969,9.75072266 C3.36869141,7.09832031 6.22390625,4.44582031 9.08015625,1.79474609 C9.61396484,1.29923828 10.3959766,1.31052734 10.9435938,1.8184375 C11.6740039,2.49585938 12.4023828,3.17601563 13.1317383,3.85484375 C13.3579102,4.06533203 13.5844531,4.27527344 13.8348633,4.5078125 L13.8348633,4.34146484 C13.8348633,3.54902344 13.8346484,3.371875 13.8348633,2.57945313 C13.8349609,2.24113281 13.9689258,2.09226563 14.273457,2.09210938 C14.9922656,2.09181641 15.7110938,2.09195313 16.4299023,2.09181641 C16.7738867,2.09179688 16.9006445,2.2315625 16.9006641,2.61283203 C16.9008008,4.34457031 16.9019141,5.46107422 16.8980859,7.19283203 C16.897793,7.31236328 16.9324609,7.38767578 17.0125977,7.46150391 C17.8376953,8.22080078 18.6601758,8.98361328 19.483418,9.74542969 C19.6944336,9.94070313 19.7177148,10.1829688 19.5418945,10.4205078 C19.3157813,10.7260352 19.0875586,11.0296484 18.8564063,11.3303711 C18.6770508,11.5636914 18.4616016,11.5812695 18.2483594,11.3830859 C16.4300391,9.69324219 14.6122656,8.00271484 12.7943555,6.31234375 C11.8869336,5.46855469 10.9795898,4.62464844 10.0721289,3.78087891 C10.0510352,3.76126953 10.0289648,3.74292969 9.99941406,3.71712891 Z" id="路径" fill="#A6ADB4"></path>
            </g>
        </g>
    </g>
</svg>