<?xml version="1.0" encoding="UTF-8"?>
<svg width="20px" height="20px" viewBox="0 0 20 20" version="1.1" xmlns="http://www.w3.org/2000/svg" xmlns:xlink="http://www.w3.org/1999/xlink">
    <title>编组 8</title>
    <g id="页面-1" stroke="none" stroke-width="1" fill="none" fill-rule="evenodd">
        <g id="画板" transform="translate(-32.000000, -336.000000)" fill-rule="nonzero">
            <g id="网络运维类" transform="translate(31.000000, 313.000000)">
                <g id="编组-8" transform="translate(1.000000, 23.000000)">
                    <path d="M0,18.9473684 C0,19.5263158 0.473684211,20 1.05263156,20 L18.9473684,20 C19.5263158,20 20,19.5263158 20,18.9473684 L20,6.31578948 L0,6.31578948 L0,18.9473684 Z" id="路径" fill="#08C0C0"></path>
                    <path d="M6.10526315,16.4736842 C6.9473684,16.631579 8.05263156,16.4736842 8.05263159,16.4736842 C8.36842106,17.1052632 9.21052632,16.8947369 9.21052632,16.8947369 C9.42105262,17.2105263 10.5263158,18.2631579 10.5263158,18.2631579 C7.42105261,18.5263158 6.10526315,16.4736842 6.10526315,16.4736842 L6.10526315,16.4736842 Z" id="路径" fill="#F9F9F9"></path>
                    <path d="M12.1578947,13.5263158 C12.1578947,13.5263158 11.4210526,14.5789474 9.84210526,15.3684211 C9.84210526,15.3684211 9.52631579,14.6315789 8.68421053,14.7894737 C8.68421053,14.7894737 8.36842106,14.1578947 8.31578946,12.2631579 C8.31578946,12.2631579 9.05263158,12.3157895 9.15789474,11.4736842 C9.15789474,11.4736842 10.5789474,11.6315789 11.7368421,12.2631579 C11.7368421,12.2631579 11.4736842,13.1052631 12.1578947,13.5263158 Z" id="路径" fill="#F9F9F9"></path>
                    <path d="M11.2631579,18.1052632 C11.2631579,18.1052632 10.1578947,17.4210526 9.63157896,16.5263158 C9.63157896,16.5263158 9.84210526,16.4210526 9.94736843,15.8947368 C9.94736843,15.8947368 11.6842105,15.3157895 12.7368421,13.6842105 C12.7368421,13.6842105 13.0526316,13.6842105 13.3157895,13.5263158 C13.3157895,13.5263158 14.1052632,14.2631579 14.4736842,15.2631579 C14.4736842,15.2631579 13.6842105,17.4210526 11.2631579,18.1052632 Z" id="路径" fill="#F9F9F9"></path>
                    <path d="M14.0526316,10.6842105 C14.0526316,10.6842105 15.3157895,12.1052632 14.7368421,14.5263158 C14.7368421,14.5263158 14.0526316,13.4210526 13.6842105,13.1578947 C13.6842105,13.1578947 14,12.5789474 13.631579,12.1052632 C13.631579,12.1052632 13.9473684,11.4736842 14.0526316,10.6842105 L14.0526316,10.6842105 Z" id="路径" fill="#F9F9F9"></path>
                    <path d="M13.5789474,10.0526316 C13.5263158,11.1578947 13.2105263,11.7368421 13.2105263,11.7368421 C12.6315789,11.3684211 12.0526316,11.8421053 12.0526316,11.8421053 C10.6842105,11 9.15789474,10.8947369 9.15789474,10.8947369 C9.15789474,10.6315789 8.78947367,10.3157895 8.78947367,10.3157895 C8.94736841,9.7368421 9.9473684,8.36842106 9.94736843,8.36842106 C12.4210527,8.47368423 13.5789474,10.0526316 13.5789474,10.0526316 L13.5789474,10.0526316 Z" id="路径" fill="#F9F9F9"></path>
                    <path d="M9.15789474,8.4736842 C9.15789474,8.4736842 8.68421053,9.10526315 8.26315789,10.1578947 C8.26315789,10.1578947 7.36842104,10.0526316 7.15789473,11 C7.15789473,11 6.15789474,11.1578947 5.31578946,11.6315789 C5.31578946,11.6315789 6.15789472,8.99999998 9.15789474,8.4736842 Z" id="路径" fill="#F9F9F9"></path>
                    <path d="M5.05263158,12.4210526 C5.84210527,11.8421052 7.10526316,11.5789474 7.10526316,11.5789474 C7.21052633,12.1052632 7.73684211,12.2631579 7.73684211,12.2631579 C7.63157895,13.6842105 8.10526316,15 8.10526316,15 C7.68421052,15.3157895 7.68421052,16 7.68421052,16 C6.63157893,16.1052632 5.57894736,15.8947368 5.57894736,15.8947368 C4.63157894,14.1578947 5.05263158,12.4210526 5.05263158,12.4210526 L5.05263158,12.4210526 Z" id="路径" fill="#F9F9F9"></path>
                    <path d="M18.9473684,0 L1.05263156,0 C0.473684186,0 0,0.473684211 0,1.05263156 L0,4.73684211 L20,4.73684211 L20,1.05263156 C20,0.473684186 19.5263158,0 18.9473684,0 L18.9473684,0 Z" id="路径" fill="#3054EB"></path>
                    <path d="M4.99999999,3.15789474 L2.89473684,3.15789474 C2.4736842,3.15789474 2.10526315,2.78947367 2.10526315,2.36842105 C2.10526315,1.94736844 2.4736842,1.57894737 2.89473684,1.57894737 L4.99999999,1.57894737 C5.42105263,1.57894737 5.78947367,1.94736841 5.78947367,2.36842105 C5.78947367,2.78947369 5.42105263,3.15789474 4.99999999,3.15789474 L4.99999999,3.15789474 Z" id="路径" fill="#F9F9F9"></path>
                    <path d="M17.1052632,3.15789474 L8.68421053,3.15789474 C8.26315789,3.15789474 7.89473685,2.78947369 7.89473685,2.36842105 C7.89473685,1.94736841 8.26315789,1.57894737 8.68421053,1.57894737 L17.1052632,1.57894737 C17.5263158,1.57894737 17.8947368,1.94736841 17.8947368,2.36842105 C17.8947368,2.78947369 17.5263158,3.15789474 17.1052632,3.15789474 L17.1052632,3.15789474 Z" id="路径" fill="#F9F9F9"></path>
                </g>
            </g>
        </g>
    </g>
</svg>