<?xml version="1.0" encoding="UTF-8"?>
<svg width="20px" height="20px" viewBox="0 0 20 20" version="1.1" xmlns="http://www.w3.org/2000/svg" xmlns:xlink="http://www.w3.org/1999/xlink">
    <title>网络运维类</title>
    <g id="页面-1" stroke="none" stroke-width="1" fill="none" fill-rule="evenodd">
        <g id="画板" transform="translate(-32.000000, -314.000000)" fill-rule="nonzero">
            <g id="网络运维类" transform="translate(31.000000, 313.000000)">
                <rect id="矩形" fill="#000000" opacity="0" x="0" y="0" width="16" height="16"></rect>
                <path d="M1,19.9473684 C1,20.5263158 1.47368421,21 2.05263156,21 L19.9473684,21 C20.5263158,21 21,20.5263158 21,19.9473684 L21,7.31578948 L1,7.31578948 L1,19.9473684 Z M7.10526315,17.4736842 C7.9473684,17.631579 9.05263156,17.4736842 9.05263159,17.4736842 C9.36842106,18.1052632 10.2105263,17.8947369 10.2105263,17.8947369 C10.4210526,18.2105263 11.5263158,19.2631579 11.5263158,19.2631579 C8.42105261,19.5263158 7.10526315,17.4736842 7.10526315,17.4736842 L7.10526315,17.4736842 Z M13.1578947,14.5263158 C13.1578947,14.5263158 12.4210526,15.5789474 10.8421053,16.3684211 C10.8421053,16.3684211 10.5263158,15.6315789 9.68421053,15.7894737 C9.68421053,15.7894737 9.36842106,15.1578947 9.31578946,13.2631579 C9.31578946,13.2631579 10.0526316,13.3157895 10.1578947,12.4736842 C10.1578947,12.4736842 11.5789474,12.6315789 12.7368421,13.2631579 C12.7368421,13.2631579 12.4736842,14.1052631 13.1578947,14.5263158 Z M12.2631579,19.1052632 C12.2631579,19.1052632 11.1578947,18.4210526 10.631579,17.5263158 C10.631579,17.5263158 10.8421053,17.4210526 10.9473684,16.8947368 C10.9473684,16.8947368 12.6842105,16.3157895 13.7368421,14.6842105 C13.7368421,14.6842105 14.0526316,14.6842105 14.3157895,14.5263158 C14.3157895,14.5263158 15.1052632,15.2631579 15.4736842,16.2631579 C15.4736842,16.2631579 14.6842105,18.4210526 12.2631579,19.1052632 Z M15.0526316,11.6842105 C15.0526316,11.6842105 16.3157895,13.1052632 15.7368421,15.5263158 C15.7368421,15.5263158 15.0526316,14.4210526 14.6842105,14.1578947 C14.6842105,14.1578947 15,13.5789474 14.631579,13.1052632 C14.631579,13.1052632 14.9473684,12.4736842 15.0526316,11.6842105 L15.0526316,11.6842105 Z M14.5789474,11.0526316 C14.5263158,12.1578947 14.2105263,12.7368421 14.2105263,12.7368421 C13.6315789,12.3684211 13.0526316,12.8421053 13.0526316,12.8421053 C11.6842105,12 10.1578947,11.8947369 10.1578947,11.8947369 C10.1578947,11.6315789 9.78947367,11.3157895 9.78947367,11.3157895 C9.94736841,10.7368421 10.9473684,9.36842106 10.9473684,9.36842106 C13.4210527,9.47368423 14.5789474,11.0526316 14.5789474,11.0526316 L14.5789474,11.0526316 Z M10.1578947,9.4736842 C10.1578947,9.4736842 9.68421053,10.1052631 9.26315789,11.1578947 C9.26315789,11.1578947 8.36842104,11.0526316 8.15789473,12 C8.15789473,12 7.15789474,12.1578947 6.31578946,12.6315789 C6.31578946,12.6315789 7.15789472,9.99999998 10.1578947,9.4736842 Z M6.05263158,13.4210526 C6.84210527,12.8421052 8.10526316,12.5789474 8.10526316,12.5789474 C8.21052633,13.1052632 8.73684211,13.2631579 8.73684211,13.2631579 C8.63157895,14.6842105 9.10526316,16 9.10526316,16 C8.68421052,16.3157895 8.68421052,17 8.68421052,17 C7.63157893,17.1052632 6.57894736,16.8947368 6.57894736,16.8947368 C5.63157894,15.1578947 6.05263158,13.4210526 6.05263158,13.4210526 L6.05263158,13.4210526 Z M19.9473684,1 L2.05263156,1 C1.47368419,1 1,1.47368421 1,2.05263156 L1,5.73684211 L21,5.73684211 L21,2.05263156 C21,1.47368419 20.5263158,1 19.9473684,1 L19.9473684,1 Z M5.99999999,4.15789474 L3.89473684,4.15789474 C3.4736842,4.15789474 3.10526315,3.78947367 3.10526315,3.36842105 C3.10526315,2.94736844 3.4736842,2.57894737 3.89473684,2.57894737 L5.99999999,2.57894737 C6.42105263,2.57894737 6.78947367,2.94736841 6.78947367,3.36842105 C6.78947367,3.78947369 6.42105263,4.15789474 5.99999999,4.15789474 L5.99999999,4.15789474 Z M18.1052632,4.15789474 L9.68421053,4.15789474 C9.26315789,4.15789474 8.89473685,3.78947369 8.89473685,3.36842105 C8.89473685,2.94736841 9.26315789,2.57894737 9.68421053,2.57894737 L18.1052632,2.57894737 C18.5263158,2.57894737 18.8947368,2.94736841 18.8947368,3.36842105 C18.8947368,3.78947369 18.5263158,4.15789474 18.1052632,4.15789474 L18.1052632,4.15789474 Z" id="形状" fill="#A6ADB4"></path>
            </g>
        </g>
    </g>
</svg>