<?xml version="1.0" encoding="UTF-8"?>
<svg width="21px" height="21px" viewBox="0 0 21 21" version="1.1" xmlns="http://www.w3.org/2000/svg" xmlns:xlink="http://www.w3.org/1999/xlink">
    <title>形状</title>
    <g id="页面-1" stroke="none" stroke-width="1" fill="none" fill-rule="evenodd">
        <g id="画板" transform="translate(-71.000000, -525.000000)" fill="#A6ADB4" fill-rule="nonzero">
            <g id="系统集成服务" transform="translate(71.994782, 525.981127)">
                <path d="M12.1738873,0 L12.1738873,5.21730209 L17.391235,5.21730209 L12.1738873,0 Z M0,19.999886 L15.6521115,19.999886 L15.6521115,13.0434376 L0,13.0434376 L0,19.999886 Z M5.21734769,15.6521571 L6.95649399,15.6521571 L6.95649399,17.3912122 L5.21734769,17.3912122 L5.21734769,15.6521571 Z M1.73914629,15.6521571 L3.4782014,15.6521571 L3.4782014,17.3912122 L1.73914629,17.3912122 L1.73914629,15.6521571 Z M16.5217074,13.0434376 L16.5217074,19.999886 L20,19.999886 L20,13.0434376 L16.5217074,13.0434376 Z M17.3912578,6.08106167 L11.3043141,6.08696642 L11.3043141,0 L2.60871944,0 L2.60871944,12.1738189 L17.3912578,12.1738189 L17.3912578,6.08106167 L17.3912578,6.08106167 Z M15.6521115,10.434741 L4.34782015,10.434741 L4.34782015,9.56512222 L15.6521115,9.56512222 L15.6521115,10.434741 L15.6521115,10.434741 Z M15.6521115,8.69564028 L4.34782015,8.69564028 L4.34782015,7.82599874 L15.6521115,7.82599874 L15.6521115,8.69564028 L15.6521115,8.69564028 Z" id="形状"></path>
            </g>
        </g>
    </g>
</svg>