<?xml version="1.0" encoding="UTF-8"?>
<svg width="21px" height="21px" viewBox="0 0 21 21" version="1.1" xmlns="http://www.w3.org/2000/svg" xmlns:xlink="http://www.w3.org/1999/xlink">
    <title>编组 6</title>
    <g id="页面-1" stroke="none" stroke-width="1" fill="none" fill-rule="evenodd">
        <g id="画板" transform="translate(-71.000000, -548.000000)" fill-rule="nonzero">
            <g id="系统集成服务" transform="translate(71.994782, 525.981127)">
                <g id="编组-6" transform="translate(0.000000, 23.000000)">
                    <polygon id="路径" fill="#3054EB" points="12.1738873 0 12.1738873 5.21730209 17.391235 5.21730209"></polygon>
                    <polygon id="路径" fill="#08C0C0" points="0 19.999886 15.6521115 19.999886 15.6521115 13.0434376 0 13.0434376"></polygon>
                    <polygon id="路径" fill="#FFFFFF" points="5.21734769 15.6521571 6.95649399 15.6521571 6.95649399 17.3912122 5.21734769 17.3912122"></polygon>
                    <polygon id="路径" fill="#FFFFFF" points="1.73914629 15.6521571 3.4782014 15.6521571 3.4782014 17.3912122 1.73914629 17.3912122"></polygon>
                    <polygon id="路径" fill="#08C0C0" points="16.5217074 13.0434376 16.5217074 19.999886 20 19.999886 20 13.0434376"></polygon>
                    <polygon id="路径" fill="#3054EB" points="17.391235 6.08106167 11.3043141 6.08696642 11.3043141 0 2.60871944 0 2.60871944 12.1738189 17.3912578 12.1738189 17.3912578 6.08106167"></polygon>
                    <polygon id="路径" fill="#FFFFFF" points="15.6520887 10.434741 4.34782015 10.434741 4.34782015 9.56512222 15.6521115 9.56512222 15.6521115 10.434741"></polygon>
                    <polygon id="路径" fill="#FFFFFF" points="15.6520887 8.69564028 4.34782015 8.69564028 4.34782015 7.82599874 15.6521115 7.82599874 15.6521115 8.69564028"></polygon>
                </g>
            </g>
        </g>
    </g>
</svg>