<?xml version="1.0" encoding="UTF-8"?>
<svg width="21px" height="20px" viewBox="0 0 21 20" version="1.1" xmlns="http://www.w3.org/2000/svg" xmlns:xlink="http://www.w3.org/1999/xlink">
    <title>形状</title>
    <g id="页面-1" stroke="none" stroke-width="1" fill="none" fill-rule="evenodd">
        <g id="画板" transform="translate(-34.000000, -441.000000)" fill-rule="nonzero">
            <g id="编组-3" transform="translate(34.444000, 441.000000)">
                <path d="M17.9985549,1 L20,5.00047882 L20,17.9978353 C20.0006335,18.2634381 19.8954061,18.5183466 19.707596,18.7061567 C19.5197859,18.8939668 19.2648774,18.9991942 18.9992746,18.9985578 L1.00071965,18.9985578 C0.44803745,18.9985578 0,18.5505175 0,17.9978353 L0,5.00287862 L2.00143931,1 L17.9985549,1 Z" id="路径" fill="#3054EB"></path>
                <polygon id="路径" fill="#08C0C0" points="9.99999712 8.00023795 5.9995183 11.998317 8.99927746 11.998317 8.99927746 15.9987958 11.0007168 15.9987958 11.0007168 11.998317 14.0004759 11.998317"></polygon>
                <polygon id="路径" fill="#FFFFFF" points="16.7626541 2.99903951 3.23734009 2.99903951 2.23662043 5.00047882 17.7633738 5.00047882"></polygon>
            </g>
        </g>
    </g>
</svg>