<svg id="图层_1" data-name="图层 1" xmlns="http://www.w3.org/2000/svg" viewBox="0 0 200 200"><defs><style>.cls-1{fill:#3054eb;}.cls-2{fill:#08c0c0;}.cls-3{fill:#f9f9f9;}</style></defs><title>虚拟激活</title><path class="cls-1" d="M162.88,64.86a49.4,49.4,0,0,0-49.29-43A49.9,49.9,0,0,0,67,53.56H63.84A31.52,31.52,0,0,0,33.09,78a45.22,45.22,0,0,0,12.66,88.64h104A52.08,52.08,0,0,0,162.88,64.86Z"/><path class="cls-2" d="M72.88,148.53H59.32a7,7,0,0,1-6.79-6.78V83a7,7,0,0,1,6.79-6.79H72.88a6.79,6.79,0,1,1,0,13.57H66.1V135h6.78a6.79,6.79,0,1,1,0,13.57Z"/><path class="cls-3" d="M95.5,146.27c-1.81,2.71-5.43,1.81-5-1.36l2.72-28.49H82.38a3.75,3.75,0,0,1-2.71-6.33L104.09,78c1.81-2.71,5.43-1.81,5,1.36l-3.16,28.49h10.85a3.75,3.75,0,0,1,2.72,6.33Z"/><path class="cls-2" d="M147.51,141.75a7,7,0,0,1-6.79,6.78H127.15a6.79,6.79,0,0,1,0-13.57h6.79V89.74h-6.79a6.79,6.79,0,0,1,0-13.57h13.57A7,7,0,0,1,147.51,83Z"/></svg>