<?xml version="1.0" standalone="no"?><!DOCTYPE svg PUBLIC "-//W3C//DTD SVG 1.1//EN" "http://www.w3.org/Graphics/SVG/1.1/DTD/svg11.dtd"><svg t="1661907885832" class="icon" viewBox="0 0 1024 1024" version="1.1" xmlns="http://www.w3.org/2000/svg" p-id="1069" xmlns:xlink="http://www.w3.org/1999/xlink" width="128" height="128"><path d="M298.666667 298.666667h341.333333v85.333333H298.666667v-85.333333zM298.666667 469.333333h256v85.333334H298.666667v-85.333334z" fill="#000000" p-id="1070"></path><path d="M170.666667 85.333333a42.666667 42.666667 0 0 0-42.666667 42.666667v768a42.666667 42.666667 0 0 0 42.666667 42.666667h384v-85.333334H213.333333V170.666667h430.336L768 294.997333V448h85.333333v-170.666667a42.666667 42.666667 0 0 0-12.501333-30.165333l-149.333333-149.333333A42.666667 42.666667 0 0 0 661.333333 85.333333H170.666667z" fill="#000000" p-id="1071"></path><path d="M716.501333 545.834667a42.666667 42.666667 0 0 1 60.330667 0L913.664 682.666667 853.333333 742.997333l-106.666666-106.666666-106.666667 106.666666L579.669333 682.666667l136.832-136.832z" fill="#000000" p-id="1072"></path><path d="M789.333333 597.333333v341.333334h-85.333333V597.333333h85.333333z" fill="#000000" p-id="1073"></path></svg>